<svg width="24" height="21" viewBox="0 0 24 21" fill="none" xmlns="http://www.w3.org/2000/svg">
<path fill-rule="evenodd" clip-rule="evenodd" d="M8.3544 19.1088C4.8228 16.3232 0 11.7218 0 7.37108C0 0.10265 6.6 -2.61128 12 3.00187C17.4 -2.61128 24 0.10265 24 7.37108C24 11.7218 19.176 16.3232 15.6456 19.1088C14.0472 20.3688 13.248 21 12 21C10.752 21 9.9528 20.37 8.3544 19.1088ZM17.4 4.0148C17.6387 4.0148 17.8676 4.11241 18.0364 4.28616C18.2052 4.45991 18.3 4.69556 18.3 4.94127V6.48538H19.8C20.0387 6.48538 20.2676 6.58299 20.4364 6.75673C20.6052 6.93048 20.7 7.16613 20.7 7.41184C20.7 7.65756 20.6052 7.89321 20.4364 8.06695C20.2676 8.2407 20.0387 8.33831 19.8 8.33831H18.3V9.88242C18.3 10.1281 18.2052 10.3638 18.0364 10.5375C17.8676 10.7113 17.6387 10.8089 17.4 10.8089C17.1613 10.8089 16.9324 10.7113 16.7636 10.5375C16.5948 10.3638 16.5 10.1281 16.5 9.88242V8.33831H15C14.7613 8.33831 14.5324 8.2407 14.3636 8.06695C14.1948 7.89321 14.1 7.65756 14.1 7.41184C14.1 7.16613 14.1948 6.93048 14.3636 6.75673C14.5324 6.58299 14.7613 6.48538 15 6.48538H16.5V4.94127C16.5 4.69556 16.5948 4.45991 16.7636 4.28616C16.9324 4.11241 17.1613 4.0148 17.4 4.0148Z" fill="#FAB218"/>
</svg>
