<svg width="20" height="24" viewBox="0 0 20 24" fill="none" xmlns="http://www.w3.org/2000/svg">
<path fill-rule="evenodd" clip-rule="evenodd" d="M3.24217 0.00714979L13.4724 0.00178742V4.11827L3.24217 4.12363C2.7801 4.12418 2.33 3.97196 1.95776 3.68928L0.299463 2.42556C0.245055 2.38401 0.200842 2.32986 0.170376 2.26746C0.139909 2.20507 0.124039 2.13616 0.124039 2.06628C0.124039 1.99641 0.139909 1.9275 0.170376 1.8651C0.200842 1.80271 0.245055 1.74856 0.299463 1.70701L1.95949 0.441498C2.33057 0.158904 2.77936 0.00609914 3.24044 0.00536226L3.24217 0.00714979ZM17.6839 4.11469L15.6361 4.11648V0H17.6908C18.7883 0.0178744 19.6278 1.02421 19.6278 2.05556C19.6278 3.0887 18.7883 4.09682 17.6908 4.11469H17.6839ZM7.41734 8.24369C7.99723 8.4832 8.49057 8.74596 8.91812 9.00693V24C8.25817 23.4886 7.53664 23.0681 6.77168 22.7488C5.49939 22.2233 3.66453 21.7889 0.865501 21.7889C0.635956 21.7889 0.415812 21.6948 0.253499 21.5272C0.0911864 21.3596 0 21.1322 0 20.8952V8.04707C0 7.81004 0.0911864 7.58272 0.253499 7.41511C0.415812 7.24751 0.635956 7.15335 0.865501 7.15335C3.84282 7.15335 5.90272 7.6163 7.41734 8.24369ZM13.2266 22.7488C12.2918 23.1367 11.6358 23.5817 11.0801 23.9982V9.00514C11.5077 8.74417 12.0028 8.48142 12.5827 8.2419C14.0973 7.61451 16.1572 7.15156 19.1345 7.15156C19.364 7.15156 19.5842 7.24572 19.7465 7.41333C19.9088 7.58093 20 7.80825 20 8.04528V20.8934C20 21.1305 19.9088 21.3578 19.7465 21.5254C19.5842 21.693 19.364 21.7871 19.1345 21.7871C16.3355 21.7871 14.5006 22.2215 13.2266 22.7488Z" fill="#FAB218"/>
</svg>
