<svg width="21" height="28" viewBox="0 0 21 28" fill="none" xmlns="http://www.w3.org/2000/svg">
<mask id="mask0_2025_240" style="mask-type:luminance" maskUnits="userSpaceOnUse" x="0" y="0" width="21" height="28">
<path d="M10.5 26.3333C10.5 26.3333 20 18.7333 20 10.5C20 5.25347 15.7465 1 10.5 1C5.25347 1 1 5.25347 1 10.5C1 18.7333 10.5 26.3333 10.5 26.3333Z" fill="white" stroke="white" stroke-width="2" stroke-linejoin="round"/>
<path d="M10.5 14.3C10.999 14.3 11.4931 14.2017 11.9541 14.0107C12.4152 13.8197 12.8341 13.5398 13.187 13.187C13.5398 12.8341 13.8197 12.4152 14.0107 11.9541C14.2017 11.4931 14.3 10.999 14.3 10.5C14.3 10.0009 14.2017 9.50679 14.0107 9.04575C13.8197 8.58472 13.5398 8.16581 13.187 7.81295C12.8341 7.46008 12.4152 7.18018 11.9541 6.98921C11.4931 6.79824 10.999 6.69995 10.5 6.69995C9.49213 6.69995 8.52558 7.10031 7.81294 7.81295C7.10031 8.52558 6.69995 9.49213 6.69995 10.5C6.69995 11.5078 7.10031 12.4743 7.81294 13.187C8.52558 13.8996 9.49213 14.3 10.5 14.3Z" fill="white" stroke="black" stroke-width="2" stroke-linejoin="round"/>
</mask>
<g mask="url(#mask0_2025_240)">
<path d="M-4.69995 -1.53333H25.7V28.8667H-4.69995V-1.53333Z" fill="#FAB218"/>
</g>
</svg>
