<svg width="27" height="27" viewBox="0 0 27 27" fill="none" xmlns="http://www.w3.org/2000/svg">
<path d="M24.5701 4.44816H25.579C25.9559 4.44816 26.3173 4.59869 26.5838 4.86664C26.8503 5.13459 27 5.49801 27 5.87694V15.8784C27 16.2574 26.8503 16.6208 26.5838 16.8887C26.3173 17.1567 25.9559 17.3072 25.579 17.3072H22.7371L16.8116 8.96883C16.467 8.48396 15.9802 8.11957 15.4194 7.92666C14.8586 7.73375 14.2518 7.72196 13.684 7.89296L10.1515 8.95883C9.66006 9.10675 9.13799 9.11817 8.64065 8.99189C8.1433 8.86562 7.68922 8.60635 7.32656 8.24158L6.91021 7.82295C6.76157 7.67351 6.64774 7.49278 6.57695 7.29377C6.50615 7.09477 6.48014 6.88245 6.5008 6.67212C6.52146 6.46179 6.58827 6.25868 6.69642 6.07745C6.80457 5.89621 6.95135 5.74136 7.1262 5.62405L14.8009 0.480426C15.2591 0.173108 15.7961 0.00626049 16.3468 0.000172746C16.8975 -0.00591499 17.4381 0.149019 17.9029 0.446135L23.8085 4.22527C24.0358 4.3705 24.3008 4.4478 24.5701 4.44816ZM4.3013 16.2999L2.005 18.3202C1.84806 18.4586 1.72335 18.63 1.63974 18.8222C1.55613 19.0145 1.51566 19.2229 1.52123 19.4327C1.52679 19.6425 1.57824 19.8485 1.67192 20.036C1.7656 20.2235 1.89921 20.388 2.06326 20.5177L9.36709 26.29C9.52765 26.4171 9.71358 26.5078 9.9122 26.5561C10.1108 26.6044 10.3175 26.609 10.518 26.5697C10.7186 26.5303 10.9083 26.448 11.0744 26.3282C11.2404 26.2084 11.3788 26.0541 11.4801 25.8756L12.4804 24.1154C12.7783 23.5912 12.9035 22.9856 12.8379 22.3854C12.7722 21.7853 12.5193 21.2215 12.1153 20.7749L8.27577 16.5285C7.77508 15.9746 7.07821 15.6404 6.335 15.5976C5.59178 15.5549 4.86155 15.807 4.3013 16.2999ZM7.17025 3.01938H1.42098C1.04411 3.01938 0.68268 3.16991 0.416195 3.43786C0.14971 3.70581 0 4.06922 0 4.44816V15.1869C7.60789e-05 15.7632 0.173442 16.326 0.497342 16.8014L0.602495 16.7071L2.89737 14.6868C3.87784 13.8242 5.15581 13.3828 6.45653 13.4576C7.75724 13.5324 8.97682 14.1174 9.85306 15.0869L13.6925 19.3332C14.3992 20.1146 14.8416 21.1009 14.9565 22.1506C15.0714 23.2004 14.8528 24.2598 14.332 25.177L13.4012 26.8143C13.8028 26.9674 14.2336 27.0271 14.6614 26.9887C15.0891 26.9503 15.5026 26.815 15.8709 26.5929L22.1374 22.8123C22.3054 22.7108 22.4508 22.5754 22.5642 22.4147C22.6777 22.254 22.7569 22.0714 22.7968 21.8785C22.8367 21.6855 22.8365 21.4863 22.7961 21.2934C22.7557 21.1006 22.6761 20.9182 22.5623 20.7577L15.078 10.2147C14.9918 10.0936 14.8702 10.0027 14.73 9.95451C14.5899 9.90635 14.4383 9.90342 14.2965 9.94612L10.7639 11.0106C9.90392 11.27 8.99015 11.2904 8.11952 11.0698C7.2489 10.8492 6.45391 10.3957 5.8189 9.75752L5.40256 9.33889C5.03081 8.9653 4.74614 8.51342 4.56907 8.01583C4.392 7.51824 4.32695 6.98735 4.3786 6.46142C4.43025 5.9355 4.59732 5.42766 4.86776 4.97451C5.13821 4.52136 5.50529 4.13419 5.94253 3.84093L7.17025 3.01938Z" fill="#FAB218"/>
</svg>
