<svg width="13" height="38" viewBox="0 0 13 38" fill="none" xmlns="http://www.w3.org/2000/svg">
<path d="M13 6.57058C12.9999 5.33555 12.6556 4.12554 12.0064 3.0793C11.3572 2.03306 10.4295 1.19295 9.32964 0.65531C8.22978 0.117667 7.00229 -0.0957441 5.78794 0.0395503C4.57359 0.174845 3.42154 0.653366 2.4639 1.42024C1.50625 2.18712 0.781789 3.2113 0.373579 4.37535C-0.0346306 5.53939 -0.110059 6.79617 0.155943 8.00157C0.421944 9.20697 1.01861 10.3122 1.87751 11.1905C2.73642 12.0688 3.82279 12.6846 5.01205 12.9673V35.4666L6.5 38L7.98795 35.4666V12.9673C9.41243 12.6246 10.6814 11.8073 11.5906 10.647C12.4997 9.48666 12.9962 8.0508 13 6.57058ZM8.37952 6.09557C8.05425 6.09557 7.73629 5.99807 7.46584 5.81539C7.19539 5.63271 6.9846 5.37306 6.86013 5.06928C6.73565 4.76549 6.70308 4.43122 6.76654 4.10872C6.83 3.78622 6.98663 3.48999 7.21663 3.25748C7.44662 3.02498 7.73966 2.86664 8.05868 2.80249C8.37769 2.73834 8.70836 2.77127 9.00887 2.8971C9.30938 3.02293 9.56623 3.23602 9.74694 3.50942C9.92764 3.78282 10.0241 4.10425 10.0241 4.43306C10.0241 4.87399 9.85083 5.29685 9.54241 5.60863C9.23399 5.92042 8.81569 6.09557 8.37952 6.09557Z" fill="#FAB218"/>
</svg>
