<svg width="25" height="25" viewBox="0 0 25 25" fill="none" xmlns="http://www.w3.org/2000/svg">
<path d="M22.0238 11.9048H20.2381V7.14286C20.2381 6.51139 19.9872 5.90578 19.5407 5.45927C19.0942 5.01275 18.4886 4.7619 17.8571 4.7619H13.0952V2.97619C13.0952 2.18686 12.7817 1.42985 12.2235 0.871706C11.6654 0.313562 10.9084 0 10.119 0C9.32971 0 8.57271 0.313562 8.01456 0.871706C7.45642 1.42985 7.14286 2.18686 7.14286 2.97619V4.7619H2.38095C1.74948 4.7619 1.14388 5.01275 0.697365 5.45927C0.25085 5.90578 0 6.51139 0 7.14286V11.6667H1.78571C3.57143 11.6667 5 13.0952 5 14.881C5 16.6667 3.57143 18.0952 1.78571 18.0952H0V22.619C0 23.2505 0.25085 23.8561 0.697365 24.3026C1.14388 24.7491 1.74948 25 2.38095 25H6.90476V23.2143C6.90476 21.4286 8.33333 20 10.119 20C11.9048 20 13.3333 21.4286 13.3333 23.2143V25H17.8571C18.4886 25 19.0942 24.7491 19.5407 24.3026C19.9872 23.8561 20.2381 23.2505 20.2381 22.619V17.8571H22.0238C22.8131 17.8571 23.5702 17.5436 24.1283 16.9854C24.6864 16.4273 25 15.6703 25 14.881C25 14.0916 24.6864 13.3346 24.1283 12.7765C23.5702 12.2183 22.8131 11.9048 22.0238 11.9048Z" fill="#FAB218"/>
</svg>
