<svg width="28" height="28" viewBox="0 0 28 28" fill="none" xmlns="http://www.w3.org/2000/svg">
<path d="M25.2565 19.0941L21.2975 18.6421C20.8319 18.5874 20.3601 18.6389 19.9173 18.7928C19.4746 18.9467 19.0725 19.1989 18.7412 19.5305L15.8732 22.3985C11.4487 20.1477 7.85228 16.5512 5.60143 12.1267L8.48501 9.2431C9.15525 8.57286 9.48258 7.63764 9.37347 6.68683L8.92145 2.75891C8.83341 1.9984 8.46859 1.29688 7.89655 0.788073C7.3245 0.279266 6.58523 -0.00124707 5.81965 4.1679e-06H3.12311C1.36179 4.1679e-06 -0.103383 1.46518 0.00572582 3.22652C0.831833 16.5378 11.4777 27.1682 24.7734 27.9943C26.5347 28.1034 27.9998 26.6382 27.9998 24.8769V22.1803C28.0154 20.606 26.8308 19.2811 25.2565 19.0941Z" fill="#FAB218"/>
</svg>
